<?xml version="1.0" standalone="no"?>
<!DOCTYPE svg PUBLIC "-//W3C//DTD SVG 20010904//EN"
 "http://www.w3.org/TR/2001/REC-SVG-20010904/DTD/svg10.dtd">
<svg version="1.0" xmlns="http://www.w3.org/2000/svg"
 width="1280.000000pt" height="1280.000000pt" viewBox="0 0 1280.000000 1280.000000"
 preserveAspectRatio="xMidYMid meet">
<metadata>
Created by potrace 1.14, written by Peter Selinger 2001-2017
</metadata>
<g transform="translate(0.000000,1280.000000) scale(0.100000,-0.100000)"
fill="#000000" stroke="none">
<path d="M6065 12174 c-415 -33 -724 -81 -1075 -170 -1399 -351 -2628 -1226
-3418 -2434 -284 -433 -534 -961 -676 -1425 -15 -49 -36 -117 -46 -150 -55
-178 -129 -526 -164 -775 -43 -295 -51 -431 -50 -835 1 -346 3 -400 27 -605
113 -951 426 -1808 947 -2585 595 -889 1466 -1619 2445 -2049 72 -32 139 -62
150 -66 152 -68 643 -227 815 -265 36 -7 108 -23 160 -35 333 -73 698 -116
1080 -126 545 -15 1194 70 1699 222 62 19 81 28 72 37 -15 15 -14 60 1 75 15
15 61 15 76 0 7 -7 12 -22 12 -35 0 -13 4 -23 9 -23 22 0 320 108 461 167
1109 466 2047 1266 2668 2278 90 148 117 195 208 370 289 560 469 1107 573
1745 56 346 81 797 62 1140 -41 737 -183 1353 -465 2010 -113 263 -340 683
-469 868 -18 26 -60 85 -92 132 -287 415 -684 833 -1135 1196 -41 33 -82 64
-90 69 -25 13 -1 -8 95 -86 332 -268 653 -600 916 -945 658 -865 1038 -1833
1151 -2934 17 -167 17 -852 0 -1020 -23 -224 -70 -529 -102 -665 -5 -22 -28
-114 -49 -205 -44 -182 -153 -521 -226 -700 -26 -63 -56 -137 -67 -165 -30
-77 -211 -440 -264 -530 -302 -516 -585 -880 -985 -1270 -458 -447 -947 -779
-1590 -1083 -69 -32 -129 -67 -132 -76 -4 -11 -18 -16 -45 -16 -21 0 -65 -11
-98 -24 -229 -93 -574 -195 -884 -262 -375 -81 -932 -133 -1295 -119 -379 14
-863 77 -1145 150 -235 60 -320 85 -501 145 -457 152 -943 393 -1341 662 -506
342 -971 785 -1338 1273 -510 678 -858 1463 -1019 2295 -107 553 -128 1108
-65 1685 133 1218 679 2372 1539 3254 452 463 932 815 1500 1099 621 310 1231
487 1945 563 167 18 266 22 540 23 326 0 413 -5 700 -40 521 -64 1066 -214
1541 -424 62 -28 126 -50 142 -50 65 0 112 50 110 116 -2 68 -46 95 -358 219
-497 197 -968 312 -1535 376 -132 15 -260 21 -525 23 -192 2 -372 2 -400 0z"/>
<path d="M6170 11260 c-155 -9 -235 -16 -495 -45 -215 -25 -418 -72 -775 -180
-96 -30 -211 -63 -255 -75 -112 -30 -274 -98 -465 -196 -91 -46 -158 -78 -150
-70 13 12 148 111 537 392 153 110 156 119 19 46 -421 -224 -943 -531 -1199
-704 -90 -61 -77 -40 21 33 196 148 421 300 537 364 28 15 75 42 105 60 30 18
135 72 232 121 97 49 175 90 174 92 -2 1 -66 -23 -142 -54 -167 -67 -377 -169
-534 -260 -63 -36 -131 -75 -150 -86 -59 -34 -270 -177 -370 -252 -230 -171
-360 -285 -580 -506 -392 -393 -692 -813 -944 -1320 -549 -1104 -680 -2362
-371 -3564 190 -738 543 -1423 1045 -2026 112 -134 439 -467 558 -568 69 -59
75 -62 125 -62 28 0 77 7 107 15 32 9 136 19 249 25 l193 9 122 -77 c129 -81
179 -118 264 -194 120 -108 193 -138 332 -138 62 0 77 -4 157 -46 204 -107
335 -217 587 -494 241 -265 250 -271 106 -70 -253 354 -445 532 -722 671 -54
27 -120 66 -146 86 -61 47 -154 91 -211 99 -25 4 -57 15 -71 24 -14 10 -71 46
-128 80 -65 40 -98 66 -90 70 7 4 113 20 236 36 122 15 222 31 222 35 0 11
-145 57 -250 78 -103 22 -377 65 -479 77 -56 6 -70 12 -125 56 -179 144 -459
424 -623 623 -213 258 -432 593 -576 881 -71 141 -137 292 -137 313 0 10 -15
47 -34 82 -81 153 -219 637 -266 936 -90 561 -82 1158 21 1675 277 1388 1135
2550 2379 3220 36 19 94 53 130 75 61 37 241 123 340 163 25 10 76 36 113 58
38 22 107 52 155 67 48 15 121 40 162 56 131 50 448 144 457 135 2 -1 -23 -13
-55 -26 -57 -23 -600 -259 -657 -285 -418 -192 -565 -269 -765 -400 -156 -101
-238 -168 -515 -414 -480 -429 -560 -520 -886 -1006 -316 -471 -457 -745 -558
-1085 -43 -144 -99 -419 -111 -548 -5 -59 -14 -152 -19 -207 -37 -392 -40
-1215 -6 -1545 35 -346 101 -652 209 -965 79 -232 136 -388 145 -399 5 -6 35
-67 67 -136 94 -201 138 -274 251 -416 138 -174 309 -321 548 -474 88 -57 188
-122 222 -146 60 -44 231 -134 252 -134 14 0 93 -39 156 -77 152 -92 234 -133
267 -133 69 0 138 73 138 146 0 52 -39 94 -175 186 -281 190 -556 430 -776
678 -131 147 -142 162 -206 292 -65 134 -90 163 -77 90 l6 -37 -37 50 c-56 76
-139 213 -185 305 -62 123 -112 285 -189 607 -38 158 -79 324 -91 368 -18 65
-24 122 -30 310 -11 293 -12 315 -21 315 -4 0 -12 -39 -19 -87 -6 -49 -13 -92
-15 -98 -7 -20 -4 225 5 375 15 263 22 758 10 731 -10 -24 -62 -245 -114 -491
-60 -281 -56 -275 -50 -105 10 301 67 630 156 905 59 181 84 245 208 515 51
110 98 217 106 239 13 35 13 37 -2 25 -9 -7 -48 -57 -86 -112 -39 -54 -72 -96
-74 -94 -3 2 5 35 17 73 22 71 79 160 227 357 119 158 206 259 422 487 247
262 587 632 608 661 12 18 13 21 1 14 -18 -12 -167 -124 -199 -151 -84 -71
-440 -353 -440 -348 0 20 252 325 374 453 83 85 145 120 467 256 334 142 589
257 589 266 0 10 -26 6 -254 -37 -99 -19 -181 -32 -183 -31 -6 7 150 79 372
173 127 54 268 117 315 140 117 59 111 59 -280 -1 l-35 -5 35 16 c119 54 244
91 700 209 245 63 584 155 589 160 2 3 -5 5 -16 5 -24 0 -351 -41 -554 -70
-78 -11 -145 -18 -147 -15 -3 3 -3 5 -1 5 3 0 68 22 145 49 203 71 378 89
1054 111 173 5 329 14 345 19 l30 8 -50 15 c-27 9 -108 30 -180 49 l-130 33
55 12 c30 7 134 29 230 49 161 33 225 54 175 56 -11 0 34 11 100 24 201 41
206 44 88 70 -43 9 -85 19 -93 22 -32 14 128 24 430 27 173 2 349 5 390 5 47
1 71 4 64 11 -5 5 -72 26 -149 46 -77 20 -151 45 -165 54 -14 10 -63 36 -110
58 -209 99 -374 152 -535 172 -124 15 -537 20 -725 10z m-1859 -9126 c17 -21
0 -49 -31 -49 -31 0 -48 28 -31 49 8 9 21 16 31 16 10 0 23 -7 31 -16z"/>
<path d="M10599 7155 c-279 -44 -669 -165 -1184 -368 -250 -98 -398 -159 -468
-191 -32 -14 -85 -37 -120 -52 -34 -14 -75 -31 -92 -39 -16 -7 -50 -22 -75
-33 -116 -50 -221 -98 -290 -130 -41 -19 -109 -49 -150 -67 -70 -30 -259 -119
-660 -310 -217 -104 -852 -424 -865 -436 -5 -6 42 14 105 44 63 30 140 66 170
80 95 43 293 134 340 155 25 11 86 39 135 62 306 142 999 446 1265 555 980
403 1590 599 1963 634 313 30 465 -107 538 -481 18 -92 22 -147 22 -298 0
-102 -5 -232 -12 -290 -78 -682 -351 -1449 -676 -1905 -201 -281 -555 -629
-1005 -986 -334 -266 -830 -616 -1270 -895 -300 -191 -760 -467 -925 -555
-240 -128 -542 -228 -840 -278 -220 -37 -326 -45 -633 -45 l-304 -1 -19 -24
c-38 -47 -16 -120 44 -141 18 -6 120 -13 227 -17 566 -17 1111 96 1560 322 80
40 463 266 658 387 1323 824 2241 1575 2641 2162 404 593 703 1616 677 2311
-15 411 -131 677 -343 788 -113 58 -230 70 -414 42z"/>
</g>
</svg>
